# Blender v3.6.19 OBJ File: 'PicaturaPloaie.blend'
# www.blender.org
mtllib PicaturaPloaie.mtl
o Cone
v 0.006696 1.298553 -0.631589
v 0.010248 1.298537 -0.631939
v 0.013664 1.298489 -0.632974
v 0.016813 1.298412 -0.634655
v 0.019572 1.298308 -0.636918
v 0.021837 1.298182 -0.639674
v 0.023520 1.298037 -0.642819
v 0.024556 1.297881 -0.646232
v 0.024906 1.297718 -0.649781
v 0.024556 1.297555 -0.653330
v 0.023520 1.297398 -0.656743
v 0.021837 1.297254 -0.659888
v 0.019572 1.297128 -0.662644
v 0.016813 1.297024 -0.664907
v 0.013664 1.296947 -0.666588
v 0.010248 1.296899 -0.667623
v 0.006696 1.296883 -0.667973
v 0.003143 1.296899 -0.667623
v -0.000273 1.296947 -0.666588
v -0.003422 1.297024 -0.664907
v -0.006181 1.297128 -0.662644
v -0.008446 1.297254 -0.659888
v -0.010129 1.297398 -0.656743
v -0.011165 1.297555 -0.653330
v -0.011515 1.297718 -0.649781
v -0.011165 1.297881 -0.646232
v -0.010129 1.298037 -0.642819
v -0.008446 1.298182 -0.639674
v -0.006181 1.298308 -0.636918
v -0.003422 1.298412 -0.634655
v -0.000273 1.298489 -0.632974
v 0.003143 1.298537 -0.631939
v 0.006696 1.261335 -0.648112
vt 0.000000 0.000000
vt 0.000000 0.000000
vt 0.000000 0.000000
vt 0.000000 0.000000
vt 0.000000 0.000000
vt 0.000000 0.000000
vt 0.000000 0.000000
vt 0.000000 0.000000
vt 0.000000 0.000000
vt 0.000000 0.000000
vt 0.000000 0.000000
vt 0.000000 0.000000
vt 0.000000 0.000000
vt 0.000000 0.000000
vt 0.000000 0.000000
vt 0.000000 0.000000
vt 0.000000 0.000000
vt 0.000000 0.000000
vt 0.000000 0.000000
vt 0.000000 0.000000
vt 0.000000 0.000000
vt 0.000000 0.000000
vt 0.000000 0.000000
vt 0.000000 0.000000
vt 0.000000 0.000000
vt 0.000000 0.000000
vt 0.000000 0.000000
vt 0.000000 0.000000
vt 0.000000 0.000000
vt 0.000000 0.000000
vt 0.000000 0.000000
vt 0.000000 0.000000
vt 0.000000 0.000000
vn 0.0878 -0.4042 0.9105
vn 0.2599 -0.4058 0.8763
vn 0.4220 -0.4088 0.8092
vn 0.5680 -0.4133 0.7117
vn 0.6921 -0.4190 0.5878
vn 0.7896 -0.4257 0.4420
vn 0.8567 -0.4331 0.2800
vn 0.8910 -0.4410 0.1081
vn 0.8910 -0.4490 -0.0672
vn 0.8567 -0.4569 -0.2392
vn 0.7896 -0.4644 -0.4012
vn 0.6921 -0.4710 -0.5470
vn 0.5679 -0.4767 -0.6709
vn 0.4220 -0.4812 -0.7683
vn 0.2599 -0.4843 -0.8354
vn 0.0878 -0.4859 -0.8696
vn -0.0878 -0.4859 -0.8696
vn -0.2599 -0.4843 -0.8354
vn -0.4220 -0.4812 -0.7683
vn -0.5679 -0.4767 -0.6709
vn -0.6921 -0.4711 -0.5469
vn -0.7896 -0.4644 -0.4012
vn -0.8567 -0.4569 -0.2392
vn -0.8910 -0.4490 -0.0672
vn -0.8910 -0.4410 0.1080
vn -0.8567 -0.4331 0.2800
vn -0.7896 -0.4257 0.4420
vn -0.6921 -0.4190 0.5878
vn -0.5680 -0.4133 0.7118
vn -0.4220 -0.4088 0.8092
vn 0.0000 0.9989 -0.0458
vn -0.2599 -0.4058 0.8763
vn -0.0878 -0.4042 0.9105
usemtl Material.001
s off
f 1/1/1 33/2/1 2/3/1
f 2/3/2 33/2/2 3/4/2
f 3/4/3 33/2/3 4/5/3
f 4/5/4 33/2/4 5/6/4
f 5/6/5 33/2/5 6/7/5
f 6/7/6 33/2/6 7/8/6
f 7/8/7 33/2/7 8/9/7
f 8/9/8 33/2/8 9/10/8
f 9/10/9 33/2/9 10/11/9
f 10/11/10 33/2/10 11/12/10
f 11/12/11 33/2/11 12/13/11
f 12/13/12 33/2/12 13/14/12
f 13/14/13 33/2/13 14/15/13
f 14/15/14 33/2/14 15/16/14
f 15/16/15 33/2/15 16/17/15
f 16/17/16 33/2/16 17/18/16
f 17/18/17 33/2/17 18/19/17
f 18/19/18 33/2/18 19/20/18
f 19/20/19 33/2/19 20/21/19
f 20/21/20 33/2/20 21/22/20
f 21/22/21 33/2/21 22/23/21
f 22/23/22 33/2/22 23/24/22
f 23/24/23 33/2/23 24/25/23
f 24/25/24 33/2/24 25/26/24
f 25/26/25 33/2/25 26/27/25
f 26/27/26 33/2/26 27/28/26
f 27/28/27 33/2/27 28/29/27
f 28/29/28 33/2/28 29/30/28
f 29/30/29 33/2/29 30/31/29
f 30/31/30 33/2/30 31/32/30
f 1/1/31 2/3/31 3/4/31 4/5/31 5/6/31 6/7/31 7/8/31 8/9/31 9/10/31 10/11/31 11/12/31 12/13/31 13/14/31 14/15/31 15/16/31 16/17/31 17/18/31 18/19/31 19/20/31 20/21/31 21/22/31 22/23/31 23/24/31 24/25/31 25/26/31 26/27/31 27/28/31 28/29/31 29/30/31 30/31/31 31/32/31 32/33/31
f 31/32/32 33/2/32 32/33/32
f 32/33/33 33/2/33 1/1/33
